<?xml version="1.0" standalone="no"?>
<!DOCTYPE svg PUBLIC "-//W3C//DTD SVG 20010904//EN"
 "http://www.w3.org/TR/2001/REC-SVG-20010904/DTD/svgz10.dtd">
<svg version="1.0" xmlns="http://www.w3.org/2000/svg"
 width="802.000000pt" height="802.000000pt" viewBox="0 0 802.000000 802.000000"
 preserveAspectRatio="xMidYMid meet">
<metadata>
Created by potrace 1.14, written by Peter Selinger 2001-2017
</metadata>
<g transform="translate(0.000000,802.000000) scale(0.100000,-0.100000)"
fill="#000000" stroke="none">
<path d="M3648 7449 c-69 -4 -150 -12 -180 -18 -29 -5 -82 -13 -118 -16 -36
-4 -78 -10 -95 -15 -16 -5 -66 -16 -110 -25 -206 -41 -497 -130 -704 -216
-501 -207 -913 -487 -1291 -875 -369 -379 -621 -792 -783 -1284 -108 -330
-155 -607 -157 -927 0 -67 -4 -93 -12 -94 -7 -1 -17 -2 -23 -3 -9 -1 -65 -53
-64 -59 1 -7 -18 -47 -38 -79 -13 -21 -21 -38 -17 -38 3 0 -4 -15 -16 -34 -42
-68 -34 -195 14 -236 9 -7 16 -16 16 -21 0 -9 46 -57 87 -92 19 -16 50 -26 96
-30 9 -1 17 -9 17 -18 0 -45 99 -389 130 -454 11 -23 20 -44 20 -48 0 -4 16
-41 35 -83 19 -41 35 -78 35 -81 0 -15 155 -313 201 -384 101 -158 217 -314
331 -444 130 -147 363 -375 421 -412 22 -14 58 -41 81 -62 90 -81 294 -221
453 -312 104 -59 383 -199 397 -199 4 0 26 -8 49 -19 23 -10 94 -37 157 -60
63 -24 124 -46 135 -51 11 -5 36 -12 55 -16 19 -3 41 -10 50 -14 23 -12 248
-70 270 -70 10 0 21 -4 24 -9 3 -4 34 -11 68 -15 35 -4 97 -13 138 -21 227
-41 330 -49 680 -48 265 0 375 4 475 17 241 31 513 89 705 148 36 12 85 27
110 35 58 18 176 61 215 78 17 7 53 22 80 33 46 18 133 56 195 85 14 6 60 31
103 54 219 122 193 107 291 170 99 63 254 175 310 223 23 20 73 61 111 92 112
90 355 344 486 508 75 93 241 336 271 395 9 17 42 82 74 145 55 108 144 301
144 314 0 3 11 29 24 58 13 29 34 86 46 126 19 67 23 72 43 66 23 -8 99 -8
132 0 11 2 23 5 26 5 17 2 108 101 143 156 31 47 31 142 0 202 -13 26 -24 54
-24 61 0 6 -4 12 -8 12 -4 0 -16 20 -26 45 -11 25 -23 45 -28 45 -4 0 -8 5 -8
11 0 17 -28 40 -50 42 -11 1 -20 5 -20 10 0 4 -8 7 -17 5 -17 -3 -18 21 -25
337 -7 330 -11 385 -42 565 -33 195 -102 431 -187 636 -57 139 -83 151 -230
103 -87 -29 -107 -32 -271 -36 -146 -5 -186 -3 -235 11 -189 55 -332 136 -439
247 -110 116 -151 196 -161 314 -5 60 -10 75 -35 102 -29 30 -34 32 -139 39
-60 3 -112 11 -115 15 -3 5 -21 9 -40 9 -88 0 -281 93 -381 184 -72 66 -121
136 -158 228 -48 119 -81 132 -225 93 -52 -15 -111 -30 -130 -35 -46 -12 -235
-13 -274 -1 -17 5 -52 14 -78 20 -64 14 -150 55 -230 108 -69 45 -198 175
-198 199 0 8 -3 14 -7 14 -8 0 -27 37 -63 125 -28 65 -50 216 -50 336 0 87 -2
97 -23 117 -22 21 -32 22 -158 21 -74 -1 -191 -5 -261 -10z"/>
</g>
</svg>
